<?xml version="1.0" encoding="UTF-8"?><svg id="a" xmlns="http://www.w3.org/2000/svg" viewBox="0 0 217.69 184.78"><defs><style>.b{fill:#436f71;}</style></defs><path class="b" d="M203.44,93.61c-4.64,14.3,5.61,17.98,14.25,23.12-1.59,1.23-2.51,2.12-3.59,2.76-35.86,21.34-71.76,42.62-107.58,64.05-3.06,1.83-5.34,1.54-8.24-.14-30.23-17.47-60.54-34.81-90.78-52.25-7.07-4.08-9.25-12.09-5.42-18.93,3.92-7.01,12.04-9.25,19.35-5.08,25.42,14.5,50.85,28.98,76.1,43.77,3.79,2.22,6.28,1.89,9.79-.23,29.82-17.94,59.75-35.7,89.66-53.51,1.68-1,3.43-1.89,6.45-3.55Z"/><path class="b" d="M200.47,0c1.43,5.03,1.67,10.2,4.22,13.66,2.67,3.61,7.57,5.58,12.21,8.75-4.62,2.82-8.76,5.41-12.96,7.9-32.28,19.22-64.61,38.38-96.83,57.71-3.12,1.87-5.37,1.82-8.51,0-30.05-17.46-60.21-34.72-90.32-52.08C2.22,32.43-.36,26.71,1.06,20.42c1.25-5.54,6.3-10.42,12.42-10.63,3.24-.11,6.89,1.14,9.78,2.78,25.02,14.19,49.95,28.54,74.8,43.02,3.31,1.93,5.76,1.93,9.07-.06,29.68-17.85,59.48-35.53,89.24-53.24,1.68-1,3.41-1.91,4.11-2.29Z"/><path class="b" d="M199.14,47.09c1.25,4.91,1.35,10.27,3.9,13.93,2.56,3.67,7.55,5.65,12.01,8.75-3.67,2.26-7.1,4.44-10.59,6.52-32.28,19.23-64.6,38.4-96.81,57.74-3.93,2.36-6.8,2.66-11.05,.16-29.53-17.34-59.3-34.28-88.96-51.4C1.56,79.28-.8,74.34,.23,67.81c.85-5.42,5.39-10.5,11.38-11.09,3.34-.33,7.31,.68,10.28,2.36,25.2,14.21,50.28,28.64,75.28,43.2,3.48,2.03,6.02,1.93,9.43-.12,29.26-17.59,58.62-35,87.96-52.45,1.8-1.07,3.64-2.09,4.58-2.63Z"/></svg>