<?xml version="1.0" encoding="UTF-8"?><svg id="a" xmlns="http://www.w3.org/2000/svg" viewBox="0 0 582.01 336.89"><defs><style>.b{fill:#436f71;}</style></defs><path class="b" d="M.07,168.14c0-21.18-.07-42.35,.02-63.53,.07-15.49,6.86-27.28,20.27-35.03C57.24,48.28,94.17,27.07,131.1,5.84c13.63-7.84,27.33-7.75,40.91,.05,36.93,21.22,73.84,42.46,110.72,63.78,13.34,7.71,20.11,19.6,20.18,34.84,.2,42.54,.21,85.08,0,127.62-.08,15.07-6.53,27.02-19.85,34.73-37.19,21.51-74.36,43.08-111.66,64.39-12.85,7.34-26.37,7.59-39.25,.26-37.75-21.48-75.35-43.23-112.9-65.07C6.62,259.1,.32,247.57,.14,233.08c-.27-21.64-.07-43.29-.07-64.94Zm51.85,70.4l.5-.58c0-1.11,0-2.23,0-3.34,0-18.34,.03-36.68-.04-55.02,0-2.03,.59-3.18,2.42-4.2,13.29-7.36,26.52-14.83,39.75-22.31,4.16-2.35,5.5-6.5,3.43-10.22-2.15-3.87-6.49-5-10.65-2.67-15.71,8.81-31.37,17.69-47.12,26.45-1.99,1.1-2.75,2.3-2.74,4.61,.09,21.44,.05,42.89,.06,64.34,0,.97,.09,1.94,.17,3.38,4.87-2.85,9.41-6.23,14.22-.42Zm207.66-17.87c-.99,.54-1.89,1-2.77,1.51-15.97,9.36-31.96,18.69-47.89,28.12-1.66,.98-2.83,.98-4.48,0-12.92-7.64-25.87-15.24-38.89-22.7-1.77-1.01-4.04-1.79-6.02-1.67-3.26,.19-5.63,2.81-6.17,5.71-.64,3.49,.52,6.17,3.76,8.07,15.22,8.93,30.52,17.72,45.64,26.79,3.03,1.82,5.19,1.64,8.1-.1,13.81-8.29,27.76-16.36,41.66-24.52,4.99-2.93,9.96-5.88,15.05-8.89q-8.12-5.93-8.01-12.32Zm-93.78-62.82c.07-.95,.19-1.84,.19-2.74,.01-21.07-.02-42.14,.05-63.2,0-2.19-.8-3.43-2.63-4.47-15.88-9.08-31.71-18.24-47.58-27.34-.95-.54-2.07-.96-3.15-1.08-3.4-.38-6.61,1.76-7.7,4.94-1.2,3.51,.06,6.92,3.48,8.91,13.39,7.76,26.79,15.52,40.25,23.15,1.82,1.03,2.38,2.15,2.37,4.18-.08,18.53-.05,37.06-.04,55.59,0,.97,.08,1.95,.1,2.31,2.37-1.04,4.64-2.82,6.92-2.83,2.49-.02,4.98,1.6,7.73,2.6Zm-85.35,106.35c5.09-3.25,9.7-6.31,14.92-.07v-4.46c0-18.06,.03-36.13-.04-54.19,0-2.11,.55-3.33,2.5-4.41,13.23-7.29,26.38-14.72,39.53-22.15,4.31-2.43,5.6-6.57,3.38-10.42-2.2-3.83-6.39-4.79-10.66-2.4-15.79,8.86-31.55,17.78-47.4,26.52-1.8,.99-2.27,2.01-2.26,3.89,.06,21.45,.04,42.9,.04,64.35v3.33Zm-6.62-13.84l.64-.45c0-1.09,0-2.17,0-3.26,0-17.79,.06-35.58-.06-53.37-.02-2.68,.73-4.16,3.16-5.49,13.17-7.22,26.23-14.64,39.3-22.04,3.07-1.74,4.5-4.75,3.93-7.74-.61-3.16-3.18-5.9-6.55-6.1-1.81-.11-3.87,.64-5.51,1.55-15.67,8.71-31.26,17.58-46.95,26.25-1.8,.99-2.28,1.99-2.28,3.87,.05,21.18,.03,42.36,.04,63.53,0,.97,.1,1.94,.19,3.39,4.92-2.98,9.5-6.21,14.09-.14Zm186.27-79.74c-1.58,.85-2.49,1.31-3.37,1.82-15.64,9.17-31.3,18.32-46.9,27.57-1.95,1.16-3.43,1.14-5.34-.03-5.52-3.39-11.14-6.6-16.73-9.86-7.62-4.45-15.2-8.96-22.89-13.28-5.27-2.96-11.04,.62-11.03,6.58,0,3.53,2.16,5.34,4.9,6.93,15.26,8.84,30.54,17.66,45.68,26.7,2.25,1.34,3.67,1.17,5.72-.04,15.95-9.44,31.97-18.78,47.96-28.16,3.09-1.81,6.15-3.68,9.57-5.72-4.91-2.86-10.21-4.96-7.58-12.5Zm-51.08-37.07v-4.21c0-19.28-.25-38.57,.16-57.84,.12-5.59-1.05-9.28-6.47-11.22-1.48-.53-2.77-1.56-4.15-2.36-12.85-7.39-25.77-14.67-38.51-22.24-5.15-3.06-10.47,.08-11.55,4.63-.76,3.22,.68,6.22,4.29,8.31,12.83,7.42,25.66,14.85,38.56,22.15,2.07,1.17,2.83,2.45,2.81,4.83-.1,18.34-.06,36.68-.05,55.02,0,1.02,.1,2.04,.19,3.96,4.69-6.99,9.43-4.67,14.71-1.04Zm-22.02,11.83v-3.42c0-20.04-.12-40.09,.11-60.13,.04-3.88-.75-6.42-4.51-7.83-1.64-.62-3.09-1.76-4.64-2.65-13.34-7.69-26.68-15.36-40.01-23.07-2.96-1.71-5.89-1.94-8.69,.16-4.46,3.34-4.01,9.57,.91,12.43,13.07,7.58,26.16,15.13,39.3,22.6,1.93,1.1,2.76,2.28,2.75,4.58-.1,18.26-.05,36.51-.05,54.77v2.84c2.53-1.18,4.79-3.06,7.07-3.07,2.48-.01,4.97,1.71,7.76,2.8Zm72.27,49.94c-1.78,.97-2.77,1.47-3.72,2.03-15.49,9.07-30.98,18.13-46.44,27.24-1.48,.87-2.72,1.4-4.39,.36-3.74-2.33-7.57-4.51-11.37-6.73-9.8-5.7-19.56-11.48-29.44-17.03-4.8-2.7-10.39,.83-10.63,6.31-.19,4.39,2.78,6.2,5.96,8.04,15.17,8.79,30.34,17.57,45.42,26.51,1.63,.96,2.61,.81,4.02-.01,15.27-8.98,30.56-17.91,45.83-26.87,3.93-2.3,7.83-4.64,12.16-7.21-5.17-2.67-10.07-5.08-7.4-12.63Z"/><path class="b" d="M356.62,116.96c.97-.64,1.57-.91,1.99-1.35,9.12-9.5,22.68-5.25,28.59,2.67,3.03,4.06,4.43,8.66,4.49,13.66,.06,4.89,.5,9.86-.23,14.64-1.51,9.94-7.9,15.94-17.33,18.68-11.62,3.38-24.12-1.29-29.48-11.28-1.66-3.1-2.71-6.91-2.78-10.42-.29-15.6,0-31.21-.21-46.82-.06-4.72,3.03-7.77,7.25-7.95,4.18-.18,7.19,3.22,7.22,7.98,.04,5.55,0,11.09,.03,16.64,0,1.05,.26,2.09,.45,3.54Zm20.69,21.32c0-1.88,.02-3.76,0-5.64-.09-5.91-4.25-10.21-10.03-10.39-6.1-.19-10.73,3.7-11.05,9.61-.23,4.22-.22,8.47,0,12.69,.31,6.07,4.9,9.87,11.27,9.64,5.62-.2,9.72-4.48,9.82-10.27,.03-1.88,0-3.76,0-5.64Z"/><path class="b" d="M526.99,127.12c0-10.16,0-20.32,0-30.48,0-4.72,2.99-7.94,7.3-7.87,4.15,.06,7.07,3.22,7.09,7.85,.04,10.35-.02,20.7,.06,31.05,.01,1.27,.47,3.54,1.02,3.63,2.19,.37,4.67,1.12,6.51-1.16,3.54-4.4,7.12-8.76,10.69-13.13,1.01-1.24,1.97-2.52,3.04-3.71,2.75-3.05,6.99-3.37,10.15-.83,2.9,2.33,3.57,6.46,1.06,9.58-3.59,4.46-7.44,8.73-11.36,12.91-1.51,1.62-1.4,2.7-.06,4.26,4.05,4.7,8,9.49,11.97,14.27,1.86,2.25,2.6,4.8,1.53,7.62-2.03,5.33-8.88,6.23-12.59,1.6-4.48-5.57-8.84-11.23-13.25-16.86-1.47-1.87-5.88-3.12-7.79-1.97-.58,.35-.88,1.55-.9,2.37-.1,3.86,0,7.71-.06,11.57-.07,4.77-3.1,8-7.34,7.86-3.74-.13-7.26-3.04-7.13-8.08,.27-10.15,.08-20.32,.08-30.48Z"/><path class="b" d="M561.73,225.3c-4.23,0-8.47-.05-12.7,.02-2.66,.04-3.09,.73-2.37,3.34,1.49,5.36,7.51,8.49,14.22,7.11,2.36-.49,4.6-1.58,6.87-2.46,1.05-.41,1.99-1.08,3.04-1.47,3.13-1.19,6.53-.28,8.11,2.09,1.55,2.32,.94,5.28-1.64,7.85-.46,.46-.97,.89-1.51,1.27-9.27,6.56-27.96,7.71-37.76-2.93-3.65-3.96-5.9-8.49-6.08-13.89-.14-4.14-.23-8.29,0-12.42,.52-9.27,5.51-15.53,13.68-19.48,11.58-5.59,26.36-1.49,33.1,9.24,2.97,4.73,3.74,10.01,3.13,15.45-.45,3.97-3,6.13-7.1,6.23-4.33,.11-8.66,.02-12.99,.02v.02Zm-15.09-10.68c5.76,0,11.38,0,17.01,0,.75,0,1.63,.22,2.22-.09,.64-.34,1.47-1.2,1.43-1.8-.31-5.42-5.65-9.14-12.12-8.61-5.04,.42-8.99,5-8.54,10.49Z"/><path class="b" d="M392.92,192.6c2.82-.06,4.86,1.21,6.2,3.65,4.16,7.58,8.3,15.18,12.45,22.76,.32,.58,.57,1.2,.97,1.72,.49,.63,1.1,1.17,1.65,1.75,.6-.64,1.43-1.17,1.76-1.93,3.15-7.03,6.18-14.12,9.33-21.15,.68-1.52,1.54-3.04,2.62-4.3,2.38-2.75,5.93-3.29,8.94-1.6,3.04,1.71,4.36,4.96,2.9,8.51-3.18,7.73-6.6,15.37-9.98,23.02-5.69,12.9-11.4,25.79-17.16,38.65-.68,1.52-1.53,3.04-2.61,4.31-2.56,3.02-6.2,3.53-9.37,1.55-3.01-1.88-4.07-5.28-2.53-8.91,2.4-5.62,4.89-11.2,7.47-16.73,.75-1.61,.72-2.88-.13-4.46-5.99-11.19-11.91-22.41-17.77-33.67-.89-1.72-1.74-3.61-1.97-5.49-.54-4.55,2.6-7.73,7.22-7.7Z"/><path class="b" d="M453.27,138.4c.36,6.09,.02,12.01-3.78,17.21-6.16,8.42-14.77,11.51-24.68,10.51-10.38-1.05-18.52-6.14-21.56-16.63-2.16-7.44-2.09-15.32,.06-22.8,2.44-8.5,8.81-13.4,17.12-15.55,9.28-2.4,17.91-.72,25.31,5.61,4.95,4.24,7.6,9.67,7.53,16.3-.02,1.79,0,3.57,0,5.36Zm-14.44-.12c0-1.88,.02-3.76,0-5.64-.06-6.02-4.42-10.28-10.61-10.4-6.59-.12-11.43,3.99-11.61,10.04-.12,3.94-.11,7.9,0,11.84,.17,6.1,4.87,10.15,11.53,10.08,6.25-.07,10.62-4.26,10.69-10.28,.02-1.88,0-3.76,0-5.64Z"/><path class="b" d="M514.83,138.43c.35,5.99,.06,11.83-3.63,16.98-6.22,8.67-15.01,11.78-25.14,10.68-10.26-1.12-18.28-6.26-21.26-16.63-2.14-7.44-2.1-15.32,.08-22.8,2.5-8.6,8.99-13.53,17.42-15.61,9.17-2.27,17.74-.58,25.04,5.72,4.85,4.18,7.52,9.5,7.5,16.03,0,1.88,0,3.76,0,5.64Zm-14.44-.05c0-1.88,.01-3.76,0-5.64-.05-6.18-4.42-10.43-10.79-10.5-6.57-.07-11.29,4.1-11.44,10.22-.09,3.85-.09,7.71,0,11.56,.15,6.23,4.88,10.29,11.72,10.17,6.2-.11,10.45-4.33,10.5-10.46,.01-1.79,0-3.57,0-5.36Z"/><path class="b" d="M462.1,219.89c0,2.16-.09,4.33,.02,6.49,.21,4.04,2.31,6.92,5.95,8.54,3.86,1.71,7.71,1.76,11.14-1.08,1.95-1.62,3.71-3.46,5.58-5.17,2.77-2.53,5.75-2.82,8.44-.87,2.44,1.77,2.99,4.76,1.29,8.12-3.16,6.24-8.64,9.55-15.12,11.27-13.44,3.58-27.79-3.94-31.01-16.52-1.8-7.06-1.75-14.41,.03-21.49,2.4-9.58,12.11-16.71,22.43-17.16,7.57-.33,14.44,1.36,19.74,7.05,1.59,1.71,2.67,4.06,3.48,6.3,.92,2.55-.06,4.83-2.37,6.35-2.26,1.48-5.32,1.25-7.33-.56-1.18-1.07-2.19-2.33-3.31-3.46-3.66-3.71-8.25-4.77-12.86-2.73-4.34,1.92-6.25,5.48-6.17,10.16,.03,1.6,0,3.2,0,4.8h.07Z"/><path class="b" d="M347.05,220.1c0,1.88,.01,3.76,0,5.64-.04,4.21,2,7.24,5.65,9.02,3.77,1.84,7.69,2.01,11.19-.7,2-1.55,3.7-3.46,5.58-5.17,3.1-2.83,6.1-3.15,8.87-.99,2.43,1.89,2.87,5.29,.82,8.68-4.52,7.48-11.63,10.95-19.98,11.41-9.79,.54-19.93-4-24.37-13.61-1.26-2.74-1.84-5.91-2.15-8.94-.36-3.54-.14-7.14-.08-10.71,.19-10.74,8.44-20.26,19.05-22.14,8.89-1.57,17.07-.4,23.73,6.22,1.48,1.48,2.6,3.46,3.45,5.41,1.29,2.94,.27,5.95-2.12,7.46-2.55,1.6-5.7,1.19-7.97-1.08-1.4-1.39-2.7-2.87-4.15-4.21-3.52-3.23-7.65-2.98-11.59-1.32-3.82,1.61-5.96,4.75-5.92,9.1,.02,1.97,0,3.95,0,5.93Z"/><path class="b" d="M505.48,209.09c0-10.34,0-20.68,0-31.02,0-4.43,2.57-7.29,6.66-7.49,4.11-.21,7.11,2.38,7.66,6.63,.08,.65,.09,1.31,.09,1.97,0,19.83,.02,39.67,0,59.5,0,5.78-3.03,8.94-8.01,8.54-3.92-.32-6.37-2.89-6.38-6.82-.03-10.43,0-20.87-.01-31.3Z"/></svg>