<?xml version="1.0" encoding="UTF-8"?><svg id="a" xmlns="http://www.w3.org/2000/svg" viewBox="0 0 199.11 235.35"><defs><style>.b{fill:#436f71;}</style></defs><path class="b" d="M156.31,211.45c-9.54-6.55-18.37-10.38-27.34,.39,0-1.89,0-3.78,0-5.67,0-34.99-.08-69.98,.11-104.97,.02-4.11-1.43-6.2-4.84-8.13-25.15-14.29-50.21-28.73-75.26-43.2-6.58-3.8-9-9.78-6.97-16.41,1.94-6.32,7.93-10.63,14.43-9.91,2.38,.27,4.82,1.29,6.92,2.49,30,17.18,59.98,34.41,89.85,51.83,1.73,1.01,3.46,3.76,3.47,5.7,.2,40.99,.16,81.98,.13,122.97,0,1.28-.26,2.56-.51,4.91Z"/><path class="b" d="M116.07,235.35c-9.17-6.09-17.85-10.6-27.1-.38,0-1.89,0-3.78,0-5.67,0-34.5-.11-69,.13-103.5,.03-4.91-1.75-7.34-5.8-9.64-25.02-14.19-49.91-28.61-74.82-42.99C.82,68.76-1.83,61.92,1.27,54.82c3.27-7.49,12.06-10.8,19.2-6.72,30.9,17.64,61.74,35.39,92.49,53.31,1.74,1.01,3.4,3.87,3.41,5.88,.19,41.5,.14,83,.13,124.5,0,.81-.18,1.63-.41,3.57Z"/><path class="b" d="M198.65,187.63c-9.68-6.08-18.6-10.62-27.67,.23,0-1.86,0-3.72,0-5.58,0-35.14-.06-70.28,.08-105.41,.01-3.63-1.11-5.62-4.28-7.42-25.27-14.37-50.45-28.92-75.63-43.45-5.96-3.44-8.29-8.22-7.34-14.48,.91-5.97,4.76-10.78,10.85-11.44,3.63-.39,7.98,.64,11.2,2.46,26.05,14.68,51.92,29.69,77.83,44.64,4.88,2.82,11.61,4.71,13.99,8.97,2.5,4.48,.93,11.3,.93,17.1,.04,35.64,.02,71.27,.02,106.91,0,2.09,0,4.19,0,7.47Z"/></svg>