<?xml version="1.0" encoding="UTF-8"?><svg id="a" xmlns="http://www.w3.org/2000/svg" viewBox="0 0 577.72 642.64"><defs><style>.b{fill:#436f71;}</style></defs><path class="b" d="M.12,321.15c0-41.16-.34-82.32,.12-123.47,.31-27.98,12.95-49.9,37.03-63.92C108.21,92.43,179.43,51.56,250.7,10.81c25.12-14.36,50.98-14.43,76.1-.08,71.29,40.72,142.48,81.63,213.45,122.92,24.31,14.14,37.06,36.24,37.18,64.36,.37,82.31,.41,164.63-.03,246.95-.15,27.87-12.87,49.93-37,63.98-70.96,41.31-142.15,82.21-213.45,122.92-25.09,14.33-51.02,14.39-76.13,.06-71.3-40.71-142.49-81.62-213.45-122.92C13.08,494.86,.54,472.75,.23,444.62c-.45-41.15-.12-82.32-.12-123.47Zm98.64,132.92l1.08-.9c0-2.11,0-4.22,0-6.32,0-34.66,.06-69.32-.08-103.98-.02-3.98,1.17-6.35,4.75-8.27,12-6.46,23.84-13.24,35.73-19.91,13.63-7.65,27.29-15.25,40.86-23,5.86-3.35,8.16-8.76,6.94-15.24-1.04-5.53-5.48-10.42-11.64-10.73-3.84-.19-8.18,1.25-11.63,3.16-29.53,16.35-58.88,33.02-88.38,49.43-3.52,1.96-4.87,4.2-4.85,8.25,.14,41.16,.08,82.31,.1,123.47,0,1.55,.23,3.1,.43,5.65,9.02-5.42,17.47-11.83,26.69-1.61Zm82.35,48.53c.17-3.47,.38-5.72,.39-7.97,.02-33.82,.12-67.64-.1-101.46-.03-5,1.59-7.71,5.96-10.12,25.04-13.8,49.91-27.88,74.81-41.93,7.73-4.36,10.1-12.28,6.01-19.46-4.01-7.05-12.05-9.03-19.84-4.67-30.16,16.9-60.24,33.93-90.47,50.71-3.18,1.76-4.42,3.48-4.41,7.17,.15,40.98,.09,81.97,.11,122.95,0,1.56,.2,3.12,.37,5.53,9.04-5.48,17.5-11.49,27.16-.76Zm314.55-81.79c-3.03,1.64-4.79,2.52-6.48,3.51-30.03,17.6-60.08,35.16-90.02,52.9-3.52,2.09-6.02,2.41-9.79,.16-25.15-14.96-50.48-29.61-75.8-44.28-7.28-4.22-15.41-2.03-19.38,4.95-3.88,6.82-1.75,14.84,5.29,18.96,30.13,17.65,60.32,35.19,90.43,52.86,2.89,1.69,5.17,2,8.24,.19,35.96-21.18,72-42.22,108.01-63.32,1.08-.63,2.01-1.51,3.6-2.74-8.6-5.2-18.83-8.95-14.09-23.21Zm-139.76-142.72c.25-2.34,.51-3.63,.51-4.91,.02-40.99,.07-81.98-.13-122.97,0-1.95-1.74-4.7-3.47-5.7-29.87-17.42-59.84-34.65-89.85-51.83-2.11-1.21-4.55-2.23-6.92-2.49-6.5-.73-12.49,3.59-14.43,9.91-2.04,6.63,.38,12.61,6.97,16.41,25.05,14.46,50.11,28.91,75.26,43.2,3.41,1.94,4.86,4.03,4.84,8.13-.18,34.99-.11,69.98-.11,104.97,0,1.89,0,3.78,0,5.67,8.97-10.78,17.8-6.94,27.34-.39Zm-215.18,198.73c.39-.26,.77-.53,1.16-.79,0-1.93,0-3.87,0-5.8,0-34.32,.06-68.65-.07-102.97-.02-3.96,1.14-6.19,4.75-8.19,25.32-13.99,50.46-28.27,75.7-42.4,4.36-2.44,7.3-5.73,7.83-10.82,.59-5.61-1.3-10.26-6-13.4-4.85-3.25-9.89-3.25-15.06-.34-30.27,17.05-60.54,34.1-90.92,50.95-3.39,1.88-4.6,3.83-4.58,7.68,.15,40.32,.09,80.65,.1,120.97,0,1.61,.15,3.21,.3,6.14,9.1-5.76,17.84-11.81,26.79-1.02Zm352.6-149.64c-.7,.38-2.44,1.28-4.12,2.27-29.89,17.51-59.8,34.99-89.6,52.64-3.33,1.97-5.77,1.95-9.07,0-24.76-14.64-49.59-29.16-74.51-43.52-2.88-1.66-6.52-2.94-9.76-2.85-6.12,.17-11.2,5.01-12.49,10.54-1.46,6.28,1.08,12.02,7.12,15.56,29.99,17.56,60.03,35.02,89.96,52.69,3.13,1.85,5.38,1.92,8.51,.06,32.35-19.11,64.8-38.05,97.22-57.06,4.21-2.47,8.37-5.03,13.01-7.82-4.62-3.21-9.51-5.21-12.15-8.83-2.53-3.47-2.73-8.64-4.13-13.68Zm-1.65,47.08c-.94,.53-2.79,1.54-4.6,2.6-29.45,17.26-58.94,34.47-88.31,51.86-3.43,2.03-5.97,2.11-9.43,.06-24.9-14.73-49.88-29.33-74.98-43.71-2.96-1.69-6.92-2.73-10.26-2.43-5.99,.54-10.56,5.6-11.45,11.01-1.07,6.52,1.24,11.48,7.3,15.03,29.55,17.31,59.2,34.45,88.62,51.99,4.24,2.53,7.11,2.25,11.05-.08,32.34-19.13,64.79-38.07,97.19-57.09,3.51-2.06,6.95-4.21,10.63-6.45-4.44-3.12-9.42-5.14-11.95-8.83-2.52-3.68-2.59-9.04-3.81-13.96Zm-176.01-72.27c.23-1.95,.41-2.76,.41-3.57,.02-41.5,.07-83-.13-124.5,0-2.01-1.67-4.87-3.41-5.88-30.74-17.92-61.58-35.67-92.49-53.31-7.14-4.07-15.93-.77-19.2,6.72-3.1,7.1-.45,13.94,7.21,18.36,24.92,14.37,49.8,28.8,74.82,42.99,4.05,2.3,5.83,4.73,5.8,9.64-.24,34.5-.13,69-.13,103.5,0,1.89,0,3.78,0,5.67,9.25-10.21,17.93-5.7,27.1,.38Zm82.58-47.72c0-3.28,0-5.37,0-7.47,0-35.64,.02-71.27-.02-106.91,0-5.8,1.57-12.62-.93-17.1-2.39-4.27-9.11-6.16-13.99-8.97-25.91-14.94-51.77-29.95-77.83-44.64-3.22-1.82-7.57-2.85-11.2-2.46-6.1,.66-9.94,5.47-10.85,11.44-.96,6.26,1.38,11.04,7.34,14.48,25.18,14.53,50.36,29.08,75.63,43.45,3.17,1.8,4.29,3.79,4.28,7.42-.14,35.14-.08,70.28-.08,105.41,0,1.86,0,3.72,0,5.58,9.08-10.86,18-6.32,27.67-.23Z"/><path class="b" d="M98.76,454.07c-9.22-10.22-17.67-3.8-26.69,1.61-.2-2.55-.43-4.1-.43-5.65-.02-41.16,.04-82.31-.1-123.47-.01-4.05,1.33-6.29,4.85-8.25,29.5-16.41,58.85-33.09,88.38-49.43,3.45-1.91,7.8-3.35,11.63-3.16,6.15,.31,10.6,5.2,11.64,10.73,1.21,6.48-1.09,11.89-6.94,15.24-13.57,7.75-27.23,15.36-40.86,23-11.89,6.67-23.72,13.45-35.73,19.91-3.57,1.92-4.76,4.28-4.75,8.27,.14,34.66,.08,69.32,.08,103.98,0,2.11,0,4.22,0,6.32l-1.08,.9Z"/><path class="b" d="M181.11,502.6c-9.66-10.73-18.12-4.72-27.16,.76-.17-2.42-.37-3.97-.37-5.53-.02-40.98,.04-81.97-.11-122.95-.01-3.7,1.23-5.41,4.41-7.17,30.22-16.78,60.31-33.81,90.47-50.71,7.78-4.36,15.82-2.38,19.84,4.67,4.08,7.17,1.72,15.1-6.01,19.46-24.9,14.05-49.77,28.13-74.81,41.93-4.37,2.41-5.99,5.12-5.96,10.12,.21,33.82,.12,67.64,.1,101.46,0,2.25-.21,4.5-.39,7.97Z"/><path class="b" d="M495.66,420.82c-4.74,14.26,5.49,18.02,14.09,23.21-1.6,1.22-2.53,2.1-3.6,2.74-36.01,21.1-72.05,42.14-108.01,63.32-3.07,1.81-5.35,1.5-8.24-.19-30.11-17.67-60.3-35.21-90.43-52.86-7.05-4.13-9.17-12.15-5.29-18.96,3.97-6.98,12.1-9.17,19.38-4.95,25.32,14.67,50.65,29.32,75.8,44.28,3.78,2.25,6.27,1.93,9.79-.16,29.94-17.74,59.99-35.3,90.02-52.9,1.69-.99,3.44-1.87,6.48-3.51Z"/><path class="b" d="M355.9,278.1c-9.54-6.55-18.37-10.38-27.34,.39,0-1.89,0-3.78,0-5.67,0-34.99-.08-69.98,.11-104.97,.02-4.11-1.43-6.2-4.84-8.13-25.15-14.29-50.21-28.73-75.26-43.2-6.58-3.8-9-9.78-6.97-16.41,1.94-6.32,7.93-10.63,14.43-9.91,2.38,.27,4.82,1.29,6.92,2.49,30,17.18,59.98,34.41,89.85,51.83,1.73,1.01,3.46,3.76,3.47,5.7,.2,40.99,.16,81.98,.13,122.97,0,1.28-.26,2.56-.51,4.91Z"/><path class="b" d="M140.72,476.83c-8.95-10.78-17.69-4.74-26.79,1.02-.15-2.93-.3-4.54-.3-6.14-.01-40.32,.05-80.65-.1-120.97-.01-3.85,1.19-5.8,4.58-7.68,30.38-16.84,60.65-33.9,90.92-50.95,5.17-2.91,10.21-2.91,15.06,.34,4.7,3.15,6.58,7.8,6,13.4-.53,5.09-3.48,8.38-7.83,10.82-25.24,14.12-50.39,28.41-75.7,42.4-3.61,1.99-4.76,4.23-4.75,8.19,.13,34.32,.08,68.65,.07,102.97,0,1.93,0,3.87,0,5.8-.39,.26-.77,.53-1.16,.79Z"/><path class="b" d="M493.32,327.19c1.4,5.04,1.6,10.21,4.13,13.68,2.64,3.63,7.53,5.63,12.15,8.83-4.64,2.79-8.8,5.35-13.01,7.82-32.41,19-64.86,37.95-97.22,57.06-3.14,1.85-5.38,1.78-8.51-.06-29.93-17.66-59.97-35.13-89.96-52.69-6.04-3.54-8.59-9.28-7.12-15.56,1.29-5.53,6.37-10.37,12.49-10.54,3.24-.09,6.88,1.19,9.76,2.85,24.93,14.35,49.75,28.88,74.51,43.52,3.3,1.95,5.74,1.97,9.07,0,29.8-17.65,59.71-35.13,89.6-52.64,1.69-.99,3.43-1.89,4.12-2.27Z"/><path class="b" d="M491.67,374.27c1.22,4.92,1.29,10.28,3.81,13.96,2.53,3.69,7.51,5.7,11.95,8.83-3.68,2.24-7.13,4.39-10.63,6.45-32.41,19.02-64.86,37.96-97.19,57.09-3.95,2.33-6.82,2.61-11.05,.08-29.41-17.54-59.07-34.68-88.62-51.99-6.06-3.55-8.37-8.5-7.3-15.03,.89-5.41,5.46-10.47,11.45-11.01,3.35-.3,7.3,.73,10.26,2.43,25.1,14.38,50.08,28.98,74.98,43.71,3.47,2.05,6.01,1.97,9.43-.06,29.37-17.39,58.86-34.6,88.31-51.86,1.81-1.06,3.66-2.06,4.6-2.6Z"/><path class="b" d="M315.66,302c-9.17-6.09-17.85-10.6-27.1-.38,0-1.89,0-3.78,0-5.67,0-34.5-.11-69,.13-103.5,.03-4.91-1.75-7.34-5.8-9.64-25.02-14.19-49.91-28.61-74.82-42.99-7.66-4.42-10.31-11.26-7.21-18.36,3.27-7.49,12.06-10.8,19.2-6.72,30.9,17.64,61.74,35.39,92.49,53.31,1.74,1.01,3.4,3.87,3.41,5.88,.19,41.5,.14,83,.13,124.5,0,.81-.18,1.63-.41,3.57Z"/><path class="b" d="M398.24,254.27c-9.68-6.08-18.6-10.62-27.67,.23,0-1.86,0-3.72,0-5.58,0-35.14-.06-70.28,.08-105.41,.01-3.63-1.11-5.62-4.28-7.42-25.27-14.37-50.45-28.92-75.63-43.45-5.96-3.44-8.29-8.22-7.34-14.48,.91-5.97,4.76-10.78,10.85-11.44,3.63-.39,7.98,.64,11.2,2.46,26.05,14.68,51.92,29.69,77.83,44.64,4.88,2.82,11.61,4.71,13.99,8.97,2.5,4.48,.93,11.3,.93,17.1,.04,35.64,.02,71.27,.02,106.91,0,2.09,0,4.19,0,7.47Z"/></svg>