<?xml version="1.0" encoding="UTF-8"?><svg id="a" xmlns="http://www.w3.org/2000/svg" viewBox="0 0 196.7 235.35"><defs><style>.b{fill:#436f71;}</style></defs><path class="b" d="M26.96,186.54c-9.13-10.12-17.5-3.76-26.44,1.6-.2-2.53-.43-4.06-.43-5.6C.08,141.78,.14,101.02,0,60.27c-.01-4.01,1.32-6.23,4.8-8.17C34.01,35.85,63.08,19.33,92.32,3.15c3.42-1.89,7.72-3.32,11.52-3.13,6.09,.31,10.49,5.14,11.52,10.63,1.2,6.42-1.08,11.78-6.87,15.09-13.44,7.68-26.96,15.21-40.46,22.78-11.77,6.61-23.49,13.32-35.38,19.71-3.54,1.9-4.71,4.24-4.7,8.19,.14,34.32,.08,68.64,.08,102.97,0,2.09,0,4.17,0,6.26l-1.07,.89Z"/><path class="b" d="M108.52,234.6c-9.56-10.63-17.95-4.67-26.9,.75-.17-2.39-.37-3.94-.37-5.48-.02-40.58,.04-81.17-.1-121.75-.01-3.66,1.22-5.36,4.37-7.1,29.93-16.62,59.72-33.48,89.59-50.22,7.71-4.32,15.67-2.36,19.64,4.63,4.04,7.11,1.7,14.95-5.96,19.27-24.65,13.91-49.29,27.86-74.08,41.52-4.33,2.38-5.94,5.07-5.9,10.02,.21,33.49,.12,66.98,.09,100.47,0,2.23-.21,4.46-.38,7.89Z"/><path class="b" d="M68.52,209.08c-8.87-10.68-17.52-4.69-26.53,1.01-.14-2.9-.29-4.49-.29-6.08-.01-39.93,.05-79.86-.1-119.79-.01-3.81,1.18-5.75,4.54-7.61,30.09-16.68,60.06-33.57,90.04-50.45,5.12-2.88,10.11-2.88,14.91,.34,4.65,3.12,6.52,7.72,5.94,13.27-.53,5.04-3.44,8.3-7.76,10.71-24.99,13.99-49.9,28.14-74.97,41.99-3.58,1.98-4.72,4.19-4.7,8.11,.13,33.99,.07,67.98,.07,101.97,0,1.92,0,3.83,0,5.75-.38,.26-.77,.52-1.15,.79Z"/></svg>